<svg xmlns="http://www.w3.org/2000/svg" width="2560" height="1440" viewBox="0 0 2560 1440">
  <rect width="2560" height="1440" fill="#ffffff"/>
  <g transform="translate(1280 650) scale(1.05)">
    <polygon points="0,-470 332,-332 470,0 332,332 0,470 -332,332 -470,0 -332,-332" fill="none" stroke="#000000" stroke-width="28"/>
    <circle r="260" fill="#ffffff" stroke="#000000" stroke-width="24"/>
    <rect x="-312" y="-68" width="624" height="136" fill="#ffffff" stroke="#000000" stroke-width="18"/>
    <text x="0" y="34" text-anchor="middle" font-family="Arial Black, Helvetica, sans-serif" font-size="82" fill="#000000" letter-spacing="10">DHARMA</text>
    <g transform="translate(-512 -512)"><path d="M512 292 C660 462 560 522 628 720 C450 652 370 522 512 292 Z" fill="#000000"/><path d="M510 468 C570 560 506 596 535 676 C450 628 430 560 510 468 Z" fill="#ffffff"/></g>
  </g>
  <text x="1280" y="1248" text-anchor="middle" font-family="iA Writer Mono S, monospace" font-size="44" fill="#000000">THE FLAME</text>
  <text x="1280" y="1312" text-anchor="middle" font-family="iA Writer Mono S, monospace" font-size="26" fill="#5f584b">4 8 15 16 23 42</text>
</svg>
